<mxfile host="app.diagrams.net" modified="2023-08-08T14:05:31.839Z" agent="Mozilla/5.0 (Windows NT 10.0; Win64; x64) AppleWebKit/537.36 (KHTML, like Gecko) Chrome/115.0.0.0 Safari/537.36 GLS/91.10.7119.20" etag="2MFwUIQlFOobotsuzi6Q" version="21.6.6" type="github">
  <diagram name="Strona-1" id="n3gNs8S0kiperPbEVyvj">
    <mxGraphModel dx="1050" dy="542" grid="1" gridSize="10" guides="1" tooltips="1" connect="1" arrows="1" fold="1" page="1" pageScale="1" pageWidth="827" pageHeight="1169" math="0" shadow="0">
      <root>
        <mxCell id="0" />
        <mxCell id="1" parent="0" />
        <mxCell id="jvBAzep4MeLlaJddHyrY-3" value="" style="edgeStyle=orthogonalEdgeStyle;rounded=0;orthogonalLoop=1;jettySize=auto;html=1;" edge="1" parent="1" source="jvBAzep4MeLlaJddHyrY-1" target="jvBAzep4MeLlaJddHyrY-2">
          <mxGeometry relative="1" as="geometry" />
        </mxCell>
        <mxCell id="jvBAzep4MeLlaJddHyrY-1" value="start" style="ellipse;whiteSpace=wrap;html=1;" vertex="1" parent="1">
          <mxGeometry x="320" width="120" height="50" as="geometry" />
        </mxCell>
        <mxCell id="jvBAzep4MeLlaJddHyrY-5" value="" style="edgeStyle=orthogonalEdgeStyle;rounded=0;orthogonalLoop=1;jettySize=auto;html=1;" edge="1" parent="1" source="jvBAzep4MeLlaJddHyrY-2" target="jvBAzep4MeLlaJddHyrY-4">
          <mxGeometry relative="1" as="geometry" />
        </mxCell>
        <mxCell id="jvBAzep4MeLlaJddHyrY-2" value="index = 0&lt;br&gt;multi = 1&lt;br&gt;next = 0" style="whiteSpace=wrap;html=1;" vertex="1" parent="1">
          <mxGeometry x="320" y="90" width="120" height="60" as="geometry" />
        </mxCell>
        <mxCell id="jvBAzep4MeLlaJddHyrY-7" value="" style="edgeStyle=orthogonalEdgeStyle;rounded=0;orthogonalLoop=1;jettySize=auto;html=1;" edge="1" parent="1" source="jvBAzep4MeLlaJddHyrY-4" target="jvBAzep4MeLlaJddHyrY-6">
          <mxGeometry relative="1" as="geometry" />
        </mxCell>
        <mxCell id="jvBAzep4MeLlaJddHyrY-4" value="wczytaj next" style="shape=parallelogram;perimeter=parallelogramPerimeter;whiteSpace=wrap;html=1;fixedSize=1;" vertex="1" parent="1">
          <mxGeometry x="320" y="190" width="120" height="60" as="geometry" />
        </mxCell>
        <mxCell id="jvBAzep4MeLlaJddHyrY-9" value="" style="edgeStyle=orthogonalEdgeStyle;rounded=0;orthogonalLoop=1;jettySize=auto;html=1;" edge="1" parent="1" source="jvBAzep4MeLlaJddHyrY-6" target="jvBAzep4MeLlaJddHyrY-8">
          <mxGeometry relative="1" as="geometry" />
        </mxCell>
        <mxCell id="jvBAzep4MeLlaJddHyrY-14" value="" style="edgeStyle=orthogonalEdgeStyle;rounded=0;orthogonalLoop=1;jettySize=auto;html=1;" edge="1" parent="1" source="jvBAzep4MeLlaJddHyrY-6" target="jvBAzep4MeLlaJddHyrY-13">
          <mxGeometry relative="1" as="geometry" />
        </mxCell>
        <mxCell id="jvBAzep4MeLlaJddHyrY-6" value="index &amp;lt; 5" style="rhombus;whiteSpace=wrap;html=1;" vertex="1" parent="1">
          <mxGeometry x="340" y="290" width="80" height="80" as="geometry" />
        </mxCell>
        <mxCell id="jvBAzep4MeLlaJddHyrY-11" value="" style="edgeStyle=orthogonalEdgeStyle;rounded=0;orthogonalLoop=1;jettySize=auto;html=1;" edge="1" parent="1" source="jvBAzep4MeLlaJddHyrY-8" target="jvBAzep4MeLlaJddHyrY-10">
          <mxGeometry relative="1" as="geometry" />
        </mxCell>
        <mxCell id="jvBAzep4MeLlaJddHyrY-8" value="multy = multy * next&lt;br&gt;index ++" style="whiteSpace=wrap;html=1;" vertex="1" parent="1">
          <mxGeometry x="480" y="300" width="120" height="60" as="geometry" />
        </mxCell>
        <mxCell id="jvBAzep4MeLlaJddHyrY-12" value="" style="edgeStyle=orthogonalEdgeStyle;rounded=0;orthogonalLoop=1;jettySize=auto;html=1;" edge="1" parent="1" source="jvBAzep4MeLlaJddHyrY-10" target="jvBAzep4MeLlaJddHyrY-4">
          <mxGeometry relative="1" as="geometry" />
        </mxCell>
        <mxCell id="jvBAzep4MeLlaJddHyrY-10" value="" style="shape=waypoint;sketch=0;size=6;pointerEvents=1;points=[];fillColor=default;resizable=0;rotatable=0;perimeter=centerPerimeter;snapToPoint=1;" vertex="1" parent="1">
          <mxGeometry x="530" y="210" width="20" height="20" as="geometry" />
        </mxCell>
        <mxCell id="jvBAzep4MeLlaJddHyrY-16" value="" style="edgeStyle=orthogonalEdgeStyle;rounded=0;orthogonalLoop=1;jettySize=auto;html=1;" edge="1" parent="1" source="jvBAzep4MeLlaJddHyrY-13" target="jvBAzep4MeLlaJddHyrY-15">
          <mxGeometry relative="1" as="geometry" />
        </mxCell>
        <mxCell id="jvBAzep4MeLlaJddHyrY-18" value="" style="edgeStyle=orthogonalEdgeStyle;rounded=0;orthogonalLoop=1;jettySize=auto;html=1;" edge="1" parent="1" source="jvBAzep4MeLlaJddHyrY-13" target="jvBAzep4MeLlaJddHyrY-17">
          <mxGeometry relative="1" as="geometry" />
        </mxCell>
        <mxCell id="jvBAzep4MeLlaJddHyrY-13" value="multi &amp;gt;= 0" style="rhombus;whiteSpace=wrap;html=1;" vertex="1" parent="1">
          <mxGeometry x="340" y="400" width="80" height="80" as="geometry" />
        </mxCell>
        <mxCell id="jvBAzep4MeLlaJddHyrY-24" value="" style="edgeStyle=orthogonalEdgeStyle;rounded=0;orthogonalLoop=1;jettySize=auto;html=1;" edge="1" parent="1" source="jvBAzep4MeLlaJddHyrY-15" target="jvBAzep4MeLlaJddHyrY-23">
          <mxGeometry relative="1" as="geometry" />
        </mxCell>
        <mxCell id="jvBAzep4MeLlaJddHyrY-15" value="wyświetl &lt;br&gt;&quot;nieujemna&quot;" style="shape=parallelogram;perimeter=parallelogramPerimeter;whiteSpace=wrap;html=1;fixedSize=1;" vertex="1" parent="1">
          <mxGeometry x="480" y="410" width="120" height="60" as="geometry" />
        </mxCell>
        <mxCell id="jvBAzep4MeLlaJddHyrY-21" value="" style="edgeStyle=orthogonalEdgeStyle;rounded=0;orthogonalLoop=1;jettySize=auto;html=1;" edge="1" parent="1" source="jvBAzep4MeLlaJddHyrY-17" target="jvBAzep4MeLlaJddHyrY-20">
          <mxGeometry relative="1" as="geometry" />
        </mxCell>
        <mxCell id="jvBAzep4MeLlaJddHyrY-17" value="wyświetl&lt;br&gt;&quot;ujemna&quot;" style="shape=parallelogram;perimeter=parallelogramPerimeter;whiteSpace=wrap;html=1;fixedSize=1;" vertex="1" parent="1">
          <mxGeometry x="160" y="410" width="120" height="60" as="geometry" />
        </mxCell>
        <mxCell id="jvBAzep4MeLlaJddHyrY-19" value="koniec" style="ellipse;whiteSpace=wrap;html=1;" vertex="1" parent="1">
          <mxGeometry x="320" y="540" width="120" height="60" as="geometry" />
        </mxCell>
        <mxCell id="jvBAzep4MeLlaJddHyrY-22" value="" style="edgeStyle=orthogonalEdgeStyle;rounded=0;orthogonalLoop=1;jettySize=auto;html=1;" edge="1" parent="1" source="jvBAzep4MeLlaJddHyrY-20" target="jvBAzep4MeLlaJddHyrY-19">
          <mxGeometry relative="1" as="geometry" />
        </mxCell>
        <mxCell id="jvBAzep4MeLlaJddHyrY-20" value="" style="shape=waypoint;sketch=0;size=6;pointerEvents=1;points=[];fillColor=default;resizable=0;rotatable=0;perimeter=centerPerimeter;snapToPoint=1;" vertex="1" parent="1">
          <mxGeometry x="210" y="560" width="20" height="20" as="geometry" />
        </mxCell>
        <mxCell id="jvBAzep4MeLlaJddHyrY-25" value="" style="edgeStyle=orthogonalEdgeStyle;rounded=0;orthogonalLoop=1;jettySize=auto;html=1;" edge="1" parent="1" source="jvBAzep4MeLlaJddHyrY-23" target="jvBAzep4MeLlaJddHyrY-19">
          <mxGeometry relative="1" as="geometry" />
        </mxCell>
        <mxCell id="jvBAzep4MeLlaJddHyrY-23" value="" style="shape=waypoint;sketch=0;size=6;pointerEvents=1;points=[];fillColor=default;resizable=0;rotatable=0;perimeter=centerPerimeter;snapToPoint=1;" vertex="1" parent="1">
          <mxGeometry x="530" y="560" width="20" height="20" as="geometry" />
        </mxCell>
      </root>
    </mxGraphModel>
  </diagram>
</mxfile>
